PathFileType	4	(X/Y/Z)	Patient5_TMGait_0pt45_1_left_10.trc.trc
DataRate	CameraRate	NumFrames	NumMarkers	Units	OrigDataRate	OrigDataStartFrame	OrigNumFrames
55.776892430279	55.776892430279	5	32	mm	55.776892430279	18	       141
Frame#	Time	R.ASIS			L.ASIS			Chest			R.Shoulder			Neck			L.Shoulder			L.Elbow			L.Wrist			R.Elbow			R.Wrist			L.Thigh.Superior			L.Thigh.Lateral			L.Thigh.Inferior			L.Patella			L.Shank.Superior			L.Shank.Lateral			L.Shank.Inferior			L.Heel			L.Midfoot.Lateral			L.Midfoot.Superior			L.Toe			R.Thigh.Superior			R.Thigh.Lateral			R.Thigh.Inferior			R.Patella			R.Shank.Superior			R.Shank.Lateral			R.Shank.Inferior			R.Heel			R.Midfoot.Lateral			R.Midfoot.Superior			R.Toe			
		X1	Y1	Z1	X2	Y2	Z2	X3	Y3	Z3	X4	Y4	Z4	X5	Y5	Z5	X6	Y6	Z6	X7	Y7	Z7	X8	Y8	Z8	X9	Y9	Z9	X10	Y10	Z10	X11	Y11	Z11	X12	Y12	Z12	X13	Y13	Z13	X14	Y14	Z14	X15	Y15	Z15	X16	Y16	Z16	X17	Y17	Z17	X18	Y18	Z18	X19	Y19	Z19	X20	Y20	Z20	X21	Y21	Z21	X22	Y22	Z22	X23	Y23	Z23	X24	Y24	Z24	X25	Y25	Z25	X26	Y26	Z26	X27	Y27	Z27	X28	Y28	Z28	X29	Y29	Z29	X30	Y30	Z30	X31	Y31	Z31	X32	Y32	Z32	

18	15.454785714286	1042.037499861765	960.562213901415	626.836025723991	1012.386793800434	957.001752042518	387.451284129948	1124.787909097398	1419.372889813116	510.686907122513	1053.388971451564	1481.531537016071	690.971856698713	1001.176512831126	1547.666193031657	513.979849985830	1036.278971142670	1494.635432305866	326.062761429130	909.555440046613	1190.222792137562	208.240124783333	994.245430497992	912.679282973591	198.404674152616	995.572154060597	1169.774780317417	852.601190304601	1202.907590614145	987.855072767746	762.695460710112	1093.510576974690	788.710641373457	364.823522022355	1062.285324681525	701.897119021291	312.331366825221	1157.038529218419	678.296190816488	372.362518366400	1211.640391779366	547.192223467746	358.925852544969	1156.760859219129	436.715729522154	380.205764383478	1074.545624543717	380.347482717530	307.705011881640	1107.909276344597	320.089563997135	389.727570513880	947.890846763735	102.649561679682	393.932188073176	1028.720722117283	76.496992872136	324.341144834061	1134.244577840655	128.516892058910	359.153327862881	1234.891417894071	80.305217838541	351.080092405827	1019.811138789573	724.554817127982	637.435684953367	922.276833932337	659.552532930382	690.654339044839	987.145913975934	597.296354414791	610.107612669292	973.340879252421	504.217847226214	634.166567351835	922.205145953879	416.577127983353	595.353589330594	851.858124865250	350.526436747255	676.600043721502	898.746528125212	279.577309955695	589.655810275241	765.533048242253	54.341553590542	550.168581160124	844.580960757007	25.023866629151	622.486926885084	950.281027632236	86.984299105751	597.726201441534	1053.988516047292	44.532072807149	596.481019815803	
19	15.472714285714	1041.339718625501	959.302577759653	627.075599833598	1014.656593245917	955.335537207747	386.930201460340	1127.682381315100	1417.620764240711	509.874068701151	1055.346826760228	1480.930907968407	689.190555692832	1004.233863241120	1546.272543644876	511.806240223486	1041.015944357519	1492.296965450903	324.252292719422	915.473847158303	1187.515996124151	206.275771684016	999.547485673452	909.763250491673	197.587642027059	996.961070506985	1169.341212693320	850.970618309168	1204.872371920706	987.829978286663	761.656487290249	1092.401431132114	785.028001858044	364.137341089551	1060.507252823493	698.247118301151	312.036612723576	1154.936804601795	674.404418467547	372.544181536738	1210.624463047710	547.696084387576	359.651768568252	1164.308028781723	436.220004490215	381.628492546587	1086.635652954662	372.745960073437	309.567362616256	1126.915260546564	315.364723460873	391.064762075066	987.684256606356	84.728481786145	396.741131475752	1069.767701688577	64.778229631567	326.476871328228	1171.131975066559	125.252753315716	359.970509809115	1275.347264841052	85.293394701621	351.167074490913	1017.101022381122	723.412469062355	637.075543280201	918.578853013228	659.351968281900	689.915995147922	983.224101844166	596.404161090272	609.957286125787	968.534422529908	503.393160830842	634.025878705042	916.773164241627	416.230722112918	595.011724459125	845.334382669268	350.887458308311	676.011616968023	892.228892861573	279.403481296442	589.586590794719	757.454837139618	54.416271290000	550.167517482394	836.432234306132	25.071124629834	622.516136044360	942.108253979707	86.913516551043	597.821221109331	1045.772501614873	44.512617384204	596.561490038306	
20	15.490642857143	1040.966599707647	958.024877076606	627.078716496434	1017.861883092681	953.438798106913	386.280625031126	1130.551760976981	1415.874890477790	508.756766625175	1056.979022487897	1480.137761415018	686.988347192689	1007.202716948380	1544.724670475542	509.255978391525	1045.835526210706	1490.008750004415	322.109733403070	921.879550517385	1184.738216084960	203.826148513048	1005.507961692702	906.798785450044	196.640729793427	997.971941623828	1168.654547704528	848.880223146996	1206.532223670689	987.421939847913	760.549431281241	1091.799723674710	780.156115095048	363.078015283896	1058.380379969867	693.275409939832	312.074207468373	1152.640838859478	668.949261345519	372.824402606974	1208.440731374303	546.656026271346	361.248684757231	1170.125966369787	434.823624845938	383.841849719782	1097.370484093341	365.100961442299	311.997807737397	1143.797566474054	310.841186588548	393.063907730210	1024.702287020561	69.949861783363	399.157975306322	1107.979195424630	55.083877998066	328.981354110217	1204.919232501687	122.813312129322	362.001026806748	1311.828255379852	90.279378606617	353.423552607309	1014.609505037736	722.244286444402	636.447991101872	915.027061318668	659.184108490760	688.975052069204	979.396821893722	595.541727490346	609.631331505712	963.779469461569	502.533459895131	633.747087962824	911.377629651570	415.873555412054	594.534681715692	838.757958350395	351.327384548483	675.270386896591	885.730088918311	279.221363111903	589.467718748465	749.345013096130	54.458413103335	550.159259293329	828.270411884448	25.082800115806	622.528662898273	933.922124227623	86.878467563248	597.952340376506	1037.539853226765	44.493695056903	596.633129799290	
21	15.508571428571	1041.000014155036	956.809718465229	626.872871765235	1021.999138169561	951.396551137924	385.555890803360	1133.350084271880	1414.211179225898	507.352602658811	1058.207556858915	1479.227616770291	684.351293072400	1010.026256895660	1543.080611983926	506.287120216145	1050.711277158559	1487.794678211200	319.623189970263	928.654489496910	1181.938486266123	200.890441805373	1012.135314466130	903.894201805514	195.558865291976	998.577560351242	1167.777111094619	846.333526795657	1207.864531527310	986.690890002857	759.410605183935	1092.081654579904	774.465527684630	361.809490823749	1056.450887653757	687.360006623060	312.528722927206	1150.608101816619	662.389013763042	373.460122500611	1205.609213554188	544.276265368048	364.033701234066	1174.287099407471	432.514235828846	386.986263579863	1106.504011306703	357.709330505409	315.060892972176	1157.877794724099	306.462376642950	395.845774044645	1056.739860080003	58.607218256640	401.192637426584	1141.242125350206	47.418781509014	331.806191512753	1234.001737162783	120.723287828345	365.310080645521	1342.803867240785	94.196654046778	357.816856533803	1012.593851088873	721.100513720866	635.689204151825	911.870581513478	659.049858963739	687.820525792320	976.034068182672	594.691056315967	609.186468402138	959.397087786985	501.620714049099	633.372219617833	906.329463061434	415.448535112402	593.942351545892	832.370458066162	351.843315115343	674.357885413848	879.441171909502	278.996336878208	589.301397920412	741.221409578422	54.487011503023	550.149112420775	820.113679515987	25.063629443803	622.522232571123	925.745987950964	86.879303304213	598.125691927198	1029.312643990862	44.467629847558	596.703597147724	
22	15.526500000000	1041.519763705090	955.761690870046	626.489714052845	1026.983104299519	949.333601813465	384.783977596543	1136.031444018760	1412.732945660241	505.698215230351	1058.938591279483	1478.321971049157	681.286853804788	1012.666258782218	1541.432480258830	502.865141040360	1055.635624097197	1485.685665301170	316.787994236962	935.734523322819	1179.162876774228	197.492427175076	1019.408724913811	901.130446316460	194.318962412330	998.754887391297	1166.798543121762	843.316691896756	1208.850903516594	985.739242973168	758.245795808076	1093.591643617165	768.467175011210	360.608270471139	1055.378797027018	681.070313216935	313.418155861618	1149.325482745187	655.351198247218	374.710316632736	1202.755387039261	540.904539008504	368.152213046801	1177.003277848524	429.408091020837	391.044803025520	1113.978055845161	350.891566704387	318.628405486764	1168.675542118844	302.184392533675	399.362573246101	1081.913577095287	50.736767380706	402.828718225246	1167.699203611363	41.580087506677	334.830867113890	1257.047290986961	118.388251522195	369.783245894027	1367.009977018870	95.890448821709	364.093098750546	1011.305218860268	720.046264316948	634.922524672894	909.374283273491	658.955541562068	686.439853323321	973.494782295268	593.844185150421	608.657922010157	955.712343167652	500.657220421556	632.924616973222	901.928634864657	414.914620021840	593.257183427210	826.438779503794	352.443172426035	673.272216546646	873.548620766814	278.718233164161	589.086521950668	733.110236151280	54.560934099294	550.153816649198	811.984783308704	25.036005833717	622.498720855679	917.616768537377	86.911414676782	598.344957594496	1021.115254365156	44.422111151121	596.780948907942	
